Coordinates
version=1
nRows=19
nColumns=63
inDegrees=yes

Units are S.I. units (second, meters, Newtons, ...)
If the header above contains a line with 'inDegrees', this indicates whether rotational values are in degrees (yes) or radians (no).

endheader
time	pelvis_tilt	pelvis_list	pelvis_rotation	pelvis_tx	pelvis_ty	pelvis_tz	hip_flexion_r	hip_adduction_r	hip_rotation_r	knee_angle_r	knee_angle_r_beta	ankle_angle_r	subtalar_angle_r	mtp_angle_r	hip_flexion_l	hip_adduction_l	hip_rotation_l	knee_angle_l	knee_angle_l_beta	ankle_angle_l	subtalar_angle_l	mtp_angle_l	L5_S1_Flex_Ext	L5_S1_Lat_Bending	L5_S1_axial_rotation	L4_L5_Flex_Ext	L4_L5_Lat_Bending	L4_L5_axial_rotation	L3_L4_Flex_Ext	L3_L4_Lat_Bending	L3_L4_axial_rotation	L2_L3_Flex_Ext	L2_L3_Lat_Bending	L2_L3_axial_rotation	L1_L2_Flex_Ext	L1_L2_Lat_Bending	L1_L2_axial_rotation	L1_T12_Flex_Ext	L1_T12_Lat_Bending	L1_T12_axial_rotation	Abs_r3	Abs_r2	Abs_r1	Abs_t1	Abs_t2	neck_flexion	neck_bending	neck_rotation	arm_flex_r	arm_add_r	arm_rot_r	elbow_flex_r	pro_sup_r	wrist_flex_r	wrist_dev_r	arm_flex_l	arm_add_l	arm_rot_l	elbow_flex_l	pro_sup_l	wrist_flex_l	wrist_dev_l
0.950000	-2.356559	3.679538	90.163341	0.189813	0.588533	1.020492	5.078393	-0.349570	5.609662	22.590983	0.394287	33.866145	-1.610194	0.000000	0.286870	2.139422	2.737288	14.976331	0.261386	26.605048	-12.017790	0.000000	-0.773859	0.120427	0.390582	-1.437134	0.160168	0.414993	-1.271374	0.292807	0.414993	-0.884444	0.292807	0.341759	-0.718606	0.245576	0.317348	-0.442183	0.186542	0.292937	-5.527600	1.362299	2.172300	0.000000	0.000000	-1.757989	2.471697	10.371141	50.223687	-9.512947	182.235603	0.059483	1.071544	-73.791471	-23.810292	46.923887	-16.152495	192.990503	0.066099	0.923147	-71.363481	-24.365412
0.966667	-2.128887	1.880186	90.222561	0.188096	0.585517	1.016749	6.638792	-0.304124	5.287026	22.294678	0.389116	34.282213	-0.966531	0.000000	1.778652	2.124182	3.590777	14.546801	0.253890	26.707293	-12.899601	0.000000	-0.609120	0.139706	0.225689	-1.131196	0.185809	0.239794	-1.000723	0.339682	0.239794	-0.696163	0.339682	0.197478	-0.565629	0.284889	0.183372	-0.348051	0.216405	0.169267	-4.350882	1.580384	1.255213	0.000000	0.000000	0.595803	2.536720	11.416171	47.033253	-9.411241	181.727579	0.056131	1.127912	-72.436873	-23.772614	41.943870	-16.015098	191.481252	0.071930	1.031824	-71.372405	-24.333844
0.983333	-1.933650	0.228434	90.412925	0.186567	0.581775	1.013418	8.112037	-0.248411	4.963192	22.141833	0.386448	34.833972	-0.529203	0.000000	3.237144	2.114558	4.499107	14.313364	0.249815	27.071727	-13.705194	0.000000	-0.469087	0.148614	0.036938	-0.871141	0.197657	0.039247	-0.770662	0.361340	0.039247	-0.536119	0.361340	0.032321	-0.435594	0.303054	0.030012	-0.268036	0.230203	0.027704	-3.350639	1.681151	0.205440	0.000000	0.000000	3.179314	2.742804	12.367867	44.238575	-9.255166	180.891785	0.049088	1.163918	-69.578694	-23.778929	37.430180	-15.951059	189.998516	0.077912	1.169242	-70.950561	-24.346546
1.000000	-1.775503	-1.271444	90.726131	0.185243	0.577552	1.010570	9.487943	-0.198938	4.615687	22.107570	0.385850	35.475002	-0.277748	0.000000	4.641006	2.116419	5.435134	14.239389	0.248524	27.624762	-14.398776	0.000000	-0.351101	0.147113	-0.161645	-0.652030	0.195660	-0.171748	-0.576824	0.357689	-0.171748	-0.401274	0.357689	-0.141440	-0.326033	0.299992	-0.131337	-0.200619	0.227877	-0.121234	-2.507881	1.664167	-0.899023	0.000000	0.000000	5.897197	3.061846	13.152959	41.764896	-9.085833	179.669659	0.039570	1.181200	-65.251319	-23.839601	33.405287	-15.923666	188.567287	0.083599	1.320306	-69.992762	-24.450567
1.016667	-1.659377	-2.612300	91.131044	0.184220	0.573068	1.008221	10.753524	-0.160016	4.279857	22.170298	0.386945	36.173206	-0.204760	0.000000	5.965408	2.131418	6.335332	14.289395	0.249397	28.297298	-14.941557	0.000000	-0.253051	0.134230	-0.352098	-0.469940	0.178526	-0.374105	-0.415737	0.326367	-0.374105	-0.289212	0.326367	-0.308086	-0.234983	0.273722	-0.286080	-0.144593	0.207923	-0.264074	-1.807515	1.518440	-1.958266	0.000000	0.000000	8.658951	3.482383	13.724505	39.532730	-8.931803	177.965965	0.040385	1.181311	-59.642485	-23.957887	29.890207	-15.887477	187.229198	0.088141	1.486181	-68.470616	-24.551058
1.033333	-1.588747	-3.776728	91.604924	0.183546	0.568543	1.006338	11.874326	-0.145112	3.934066	22.293685	0.389098	36.910572	-0.245376	0.000000	7.171445	2.159940	7.150774	14.422843	0.251726	29.048942	-15.273134	0.000000	-0.174849	0.109974	-0.520385	-0.324712	0.146266	-0.552909	-0.287260	0.267392	-0.552909	-0.199835	0.267392	-0.455337	-0.162365	0.224260	-0.422813	-0.099909	0.170350	-0.390289	-1.248930	1.244052	-2.894226	0.000000	0.000000	11.398170	3.989888	14.054595	37.475681	-8.807754	175.757217	0.072976	1.162935	-53.124693	-24.115958	26.881956	-15.812525	185.852652	0.089860	1.666319	-66.249863	-24.624028
1.050000	-1.563924	-4.776520	92.096352	0.183227	0.564135	1.004875	12.856961	-0.150866	3.663256	22.456212	0.391935	37.658513	-0.412282	0.000000	8.253267	2.208695	7.842311	14.608445	0.254965	29.836694	-15.404226	0.000000	-0.112186	0.075315	-0.649585	-0.208341	0.100169	-0.690184	-0.184311	0.183121	-0.690184	-0.128218	0.183121	-0.568387	-0.104176	0.153583	-0.527788	-0.064103	0.116663	-0.487189	-0.801335	0.851980	-3.612795	0.000000	0.000000	14.050622	4.578169	14.097546	35.533477	-8.721675	172.817606	0.139922	1.131829	-45.856196	-24.238835	24.324114	-15.659092	184.414086	0.083766	1.818425	-63.507647	-24.498314
1.066667	-1.572571	-5.604513	92.586375	0.183199	0.559988	1.003733	13.674277	-0.183102	3.418131	22.622475	0.394837	38.413235	-0.593867	0.000000	9.182581	2.270703	8.399817	14.814980	0.258570	30.646210	-15.321376	0.000000	-0.064201	0.033723	-0.735353	-0.119227	0.044852	-0.781313	-0.105475	0.081994	-0.781313	-0.073375	0.081994	-0.643434	-0.059617	0.068768	-0.597475	-0.036684	0.052237	-0.551515	-0.458579	0.381483	-4.089815	0.000000	0.000000	16.551116	5.210033	13.888562	33.666608	-8.678406	169.348241	0.226270	1.092192	-38.368886	-24.286481	22.150750	-15.413731	182.701268	0.051639	1.945149	-60.146535	-24.253241
1.083333	-1.591902	-6.275805	93.059392	0.183346	0.556184	1.002825	14.324467	-0.239097	3.145275	22.761331	0.397260	39.163094	-0.677657	0.000000	9.959144	2.338645	8.866872	15.021059	0.262167	31.454115	-15.101474	0.000000	-0.027528	-0.009772	-0.779735	-0.051123	-0.012997	-0.828469	-0.045226	-0.023760	-0.828469	-0.031462	-0.023760	-0.682268	-0.025563	-0.019927	-0.633535	-0.015730	-0.015137	-0.584801	-0.196633	-0.110542	-4.336654	0.000000	0.000000	18.835122	5.844339	13.483711	31.864683	-8.684039	165.572508	0.317109	1.044187	-31.045625	-24.180033	20.275432	-15.063372	180.732521	-0.043201	2.038301	-56.225593	-23.865296
1.100000	-1.598205	-6.809680	93.497316	0.183578	0.552763	1.002079	14.815111	-0.302261	2.809524	22.846873	0.398753	39.893766	-0.589833	0.000000	10.600352	2.392774	9.280176	15.228199	0.265782	32.253354	-14.810709	0.000000	0.000588	-0.050092	-0.787493	0.001091	-0.066623	-0.836711	0.000965	-0.121794	-0.836711	0.000672	-0.121794	-0.689056	0.000546	-0.102148	-0.639838	0.000336	-0.077593	-0.590620	0.004198	-0.566654	-4.379800	0.000000	0.000000	20.850825	6.423013	12.948439	30.126536	-8.739020	161.579175	0.406446	1.008819	-24.163298	-23.931093	18.645861	-14.624279	178.428594	-0.146745	2.142595	-51.870237	-23.358297
1.116667	-1.586832	-7.223644	93.866375	0.183867	0.549726	1.001421	15.160487	-0.343994	2.538342	22.870772	0.399170	40.570657	-0.448776	0.000000	11.111397	2.429566	9.636711	15.426491	0.269243	33.033293	-14.491903	0.000000	0.021665	-0.085372	-0.763384	0.040234	-0.113544	-0.811095	0.035594	-0.207573	-0.811095	0.024761	-0.207573	-0.667961	0.020118	-0.174090	-0.620249	0.012379	-0.132241	-0.572538	0.154752	-0.965742	-4.245712	0.000000	0.000000	22.567649	6.921884	12.364416	28.464503	-8.828534	157.670202	0.484863	0.993705	-18.006822	-23.508654	17.235217	-14.124733	176.093324	-0.211759	2.227116	-47.259361	-22.672203
1.133333	-1.552094	-7.538364	94.179516	0.184153	0.547003	1.000808	15.378502	-0.383028	2.190868	22.833432	0.398519	41.215123	-0.105124	0.000000	11.523993	2.437291	9.917652	15.638879	0.272950	33.807353	-14.116736	0.000000	0.037118	-0.114520	-0.718971	0.068932	-0.152312	-0.763907	0.060982	-0.278445	-0.763907	0.042422	-0.278445	-0.629100	0.034468	-0.233530	-0.584164	0.021209	-0.177392	-0.539229	0.265132	-1.295476	-3.998703	0.000000	0.000000	23.981748	7.292497	11.746635	26.885206	-8.939025	154.013739	0.546238	1.017430	-12.741073	-22.970303	16.018316	-13.619301	173.563691	-0.171217	2.333963	-42.437294	-21.836537
1.150000	-1.513363	-7.769789	94.431219	0.184445	0.544505	1.000243	15.502801	-0.423277	1.830242	22.765019	0.397325	41.833589	0.359595	0.000000	11.855027	2.443806	10.194808	15.872097	0.277020	34.541434	-13.817156	0.000000	0.046875	-0.139972	-0.658450	0.087052	-0.186163	-0.699603	0.077011	-0.340328	-0.699603	0.053574	-0.340328	-0.576143	0.043528	-0.285431	-0.534990	0.026784	-0.216816	-0.493837	0.334825	-1.583390	-3.662099	0.000000	0.000000	25.103945	7.549916	11.122779	25.390382	-9.048558	150.920619	0.570619	1.053028	-8.504940	-22.271583	14.989831	-13.124962	171.140767	-0.031458	2.391818	-37.522891	-20.759633
1.166667	-1.485748	-7.936048	94.626969	0.184749	0.542121	0.999757	15.564356	-0.493799	1.383445	22.692717	0.396063	42.453476	1.012658	0.000000	12.139532	2.446526	10.376905	16.150281	0.281876	35.272414	-13.479909	0.000000	0.051585	-0.163675	-0.582896	0.095799	-0.217687	-0.619327	0.084750	-0.397959	-0.619327	0.058957	-0.397959	-0.510034	0.047902	-0.333765	-0.473603	0.029476	-0.253532	-0.437172	0.368469	-1.851520	-3.241895	0.000000	0.000000	25.956575	7.696532	10.486614	23.958899	-9.150749	148.366095	0.558838	1.129834	-5.357314	-21.437412	14.125755	-12.682551	168.397339	0.265852	2.454923	-32.640201	-19.438514
1.183333	-1.472519	-8.065089	94.765260	0.185087	0.539728	0.999421	15.618095	-0.593397	0.885695	22.659069	0.395475	43.083256	1.791412	0.000000	12.430510	2.449388	10.441166	16.508208	0.288123	36.018293	-13.091186	0.000000	0.053491	-0.186295	-0.489541	0.099338	-0.247772	-0.520137	0.087880	-0.452957	-0.520137	0.061135	-0.452957	-0.428348	0.049672	-0.379892	-0.397752	0.030565	-0.288571	-0.367155	0.382081	-2.107404	-2.722678	0.000000	0.000000	26.579006	7.748918	9.818804	22.569957	-9.254311	146.345168	0.532619	1.246343	-3.377463	-20.459953	13.411259	-12.300242	165.335147	0.723648	2.505536	-27.952913	-17.866614
1.200000	-1.449430	-8.174163	94.883613	0.185358	0.537255	0.999310	15.684415	-0.709018	0.299991	22.666847	0.395611	43.717253	2.677547	0.000000	12.773012	2.435663	10.402764	16.977233	0.296309	36.794554	-12.628083	0.000000	0.052754	-0.203311	-0.387955	0.097970	-0.270404	-0.412202	0.086670	-0.494331	-0.412202	0.060293	-0.494331	-0.339460	0.048988	-0.414592	-0.315213	0.030144	-0.314929	-0.290966	0.376818	-2.299897	-2.157688	0.000000	0.000000	27.032670	7.710227	9.200347	21.227557	-9.375440	144.854439	0.538738	1.411012	-2.679396	-19.328496	12.807472	-11.966007	161.942720	1.330973	2.527907	-23.636099	-16.079268
1.216667	-1.386815	-8.284509	95.002137	0.185503	0.534647	0.999451	15.784705	-0.812643	-0.372878	22.707900	0.396328	44.336266	3.631367	0.000000	13.206881	2.387545	10.302072	17.576989	0.306776	37.607610	-12.126757	0.000000	0.051160	-0.209931	-0.288715	0.095009	-0.279209	-0.306760	0.084051	-0.510427	-0.306760	0.058471	-0.510427	-0.252626	0.047507	-0.428092	-0.234581	0.029233	-0.325184	-0.216536	0.365431	-2.374785	-1.605746	0.000000	0.000000	27.389651	7.603521	8.749912	19.926829	-9.518622	143.885404	0.600572	1.597651	-3.291161	-18.045100	12.274536	-11.667195	158.273687	2.067689	2.607211	-19.880599	-14.141833
1.233333	-1.235766	-8.396049	95.197585	0.185435	0.531922	0.999916	15.907043	-0.867119	-1.207125	22.744611	0.396968	44.910921	4.643934	0.000000	13.772349	2.270130	10.179575	18.341227	0.320115	38.475801	-11.526749	0.000000	0.048299	-0.200113	-0.217314	0.089696	-0.266151	-0.230896	0.079351	-0.486556	-0.230896	0.055201	-0.486556	-0.190149	0.044851	-0.408071	-0.176567	0.027598	-0.309976	-0.162985	0.344996	-2.263724	-1.208634	0.000000	0.000000	27.689073	7.486657	8.589380	18.691980	-9.658043	143.318100	0.740259	1.795260	-4.876866	-16.654205	11.790734	-11.383963	154.757603	2.882381	2.694496	-16.847575	-12.135897
1.250000	-1.054569	-8.512453	95.416105	0.185248	0.529169	1.000707	16.071001	-0.911405	-2.098938	22.815498	0.398206	45.426229	5.641007	0.000000	14.421995	2.126792	9.988161	19.194100	0.335000	39.343922	-10.867254	0.000000	0.044597	-0.181328	-0.174378	0.082822	-0.241166	-0.185276	0.073269	-0.440880	-0.185276	0.050970	-0.440880	-0.152580	0.041413	-0.369764	-0.141682	0.025483	-0.280877	-0.130783	0.318554	-2.051216	-0.969836	0.000000	0.000000	27.935958	7.293169	8.619116	17.533233	-9.733713	142.990004	0.941748	1.963550	-6.890644	-15.207186	11.325090	-11.131749	151.425345	3.721340	2.787579	-14.486608	-10.178956
